{"title":"Les Amours Imaginaires (Heartbeats) Avi 720 x 576","uid":7087715,"size":1346402502,"categoryP":"video","categoryS":"hd___movies","magnet":"?xt=urn:btih:5a71293effb2e57cb571c74fd7ceb29e165a7121&amp;dn=Les+Amours+Imaginaires+%28Heartbeats%29+Avi+720+x+576+&amp;tr=udp%3A%2F%2Ftracker.openbittorrent.com%3A80&amp;tr=udp%3A%2F%2Fopen.demonii.com%3A1337&amp;tr=udp%3A%2F%2Ftracker.coppersurfer.tk%3A6969&amp;tr=udp%3A%2F%2Fexodus.desync.com%3A6969","seeders":1,"leechers":0,"uploader":"Mr.Polemic","files":2,"time":1331248990,"description":"VIDEO\n\nFormat                                   : MPEG-4 Visual\nCodec ID                                 : XVID\nDuration                                 : 1h 36mn\nBit rate                                 : 1 512 Kbps\nWidth                                    : 720 pixels\nHeight                                   : 576 pixels\nDisplay aspect ratio                     : 5:4\nFrame rate                               : 25.000 fps\nStandard                                 : PAL\nColor space                              : YUV\nChroma subsampling                       : 4:2:0\nCompression mode                         : Lossy\nBits/(Pixel*Frame)                       : 0.146\nStream size                              : 1.02 GiB \n\n\n\nAUDIO \n\n\nFormat                                   : MPEG Audio\nCodec ID                                 : 55\nCodec ID/Hint                            : MP3\nDuration                                 : 1h 36mn\nBit rate                                 : 320 Kbps\nChannel(s)                               : 2 channels\nSampling rate                            : 44.1 KHz\nCompression mode                         : Lossy\nStream size                              : 2.54 MiB (0%)\nAlignment                                : Aligned on interleaves\nInterleave, duration                     : 2276 ms (56.91 video frames)\nInterleave, preload duration             : 522 ms","torrent":{"xt":"urn:btih:5a71293effb2e57cb571c74fd7ceb29e165a7121","amp;dn":"Les+Amours+Imaginaires+%28Heartbeats%29+Avi+720+x+576+","amp;tr":["udp%3A%2F%2Ftracker.openbittorrent.com%3A80","udp%3A%2F%2Fopen.demonii.com%3A1337","udp%3A%2F%2Ftracker.coppersurfer.tk%3A6969","udp%3A%2F%2Fexodus.desync.com%3A6969"],"infoHash":"5a71293effb2e57cb571c74fd7ceb29e165a7121","infoHashBuffer":{"type":"Buffer","data":[90,113,41,62,255,178,229,124,181,113,199,79,215,206,178,158,22,90,113,33]},"announce":[],"urlList":[]}}